<svg width="394" height="493" viewBox="0 0 394 493" fill="none" xmlns="http://www.w3.org/2000/svg">
<g filter="url(#filter0_d_106_122)">
<path d="M144.598 5.5C193.624 5.50004 236.279 13.8846 272.52 30.7061L274.234 31.4824C310.133 47.9295 338.091 73.3906 358.077 107.834C378.398 142.854 388.5 188.361 388.5 244.25C388.5 299.713 378.396 345.633 358.091 381.925L358.092 381.926C338.228 417.765 310.354 444.348 274.487 461.633C239.098 478.894 197.932 487.5 151.027 487.5H5.5V5.5H144.598ZM123.593 391.915H137.524C163.068 391.915 185.568 387.445 205.058 378.548L205.068 378.543C224.867 369.697 240.274 354.53 251.281 332.938C262.276 311.372 267.835 281.848 267.835 244.25C267.835 206.214 262.274 176.919 251.293 156.226C240.297 135.503 224.906 121.191 205.118 113.192L205.1 113.185L205.082 113.177C185.586 104.701 163.077 100.442 137.524 100.442H123.593V391.915Z" stroke="url(#paint0_linear_106_122)" stroke-width="3" shape-rendering="crispEdges"/>
</g>
<defs>
<filter id="filter0_d_106_122" x="0" y="0" width="394" height="493" filterUnits="userSpaceOnUse" color-interpolation-filters="sRGB">
<feFlood flood-opacity="0" result="BackgroundImageFix"/>
<feColorMatrix in="SourceAlpha" type="matrix" values="0 0 0 0 0 0 0 0 0 0 0 0 0 0 0 0 0 0 127 0" result="hardAlpha"/>
<feOffset/>
<feGaussianBlur stdDeviation="2"/>
<feComposite in2="hardAlpha" operator="out"/>
<feColorMatrix type="matrix" values="0 0 0 0 0 0 0 0 0 0 0 0 0 0 0 0 0 0 0.25 0"/>
<feBlend mode="normal" in2="BackgroundImageFix" result="effect1_dropShadow_106_122"/>
<feBlend mode="normal" in="SourceGraphic" in2="effect1_dropShadow_106_122" result="shape"/>
</filter>
<linearGradient id="paint0_linear_106_122" x1="423.5" y1="260.5" x2="7.00001" y2="260.5" gradientUnits="userSpaceOnUse">
<stop stop-color="#EA257F"/>
<stop offset="1" stop-color="#1C1D2F"/>
</linearGradient>
</defs>
</svg>
